<svg width="481" height="60" viewBox="0 0 481 60" fill="none" xmlns="http://www.w3.org/2000/svg">
<g clip-path="url(#clip0_5712_156)">
<path d="M336.49 29.0914L309.723 59.2794H0V0H309.723L336.49 29.0914Z" fill="#0F202B"/>
<path d="M36.4477 18.8758H24.0358C23.9156 19.8728 23.5017 22.6311 23.3815 23.4353C24.5099 22.5978 26.2191 22.0395 28.6894 22.0395C35.0256 22.0395 38.4841 26.6854 38.4841 32.7802C38.4841 39.5396 34.5983 44.9298 26.0321 44.9298C18.5676 44.9298 14.3547 40.9353 13.7404 35.1994H22.3867C22.814 37.087 23.8288 38.4097 25.9053 38.4097C28.3155 38.4097 29.3972 36.3426 29.3972 33.3916C29.3972 30.4406 28.4825 28.5331 25.8185 28.5331C23.6686 28.5331 22.7873 29.6165 22.2665 31.1385L14.3747 30.3476C15.1292 26.3929 16.5179 16.3303 16.9786 11.6512H37.6295L36.4477 18.8825V18.8758ZM42.223 20.5109C42.657 16.3635 45.1474 11.0198 53.9672 11.0198C61.592 11.0198 65.1573 15.2402 65.1573 20.0855C65.1573 23.8939 63.0608 25.7615 61.1313 26.6389V26.805C63.0475 27.5494 66.2656 29.4436 66.2656 34.5082C66.2656 39.5728 63.0074 44.9431 53.9071 44.9431C44.2527 44.9431 41.9159 38.8882 41.6688 35.0266H50.0681C50.3418 36.881 51.3099 38.5227 53.7669 38.5227C56.037 38.5227 57.1453 36.8677 57.1453 34.3886C57.1453 31.6968 56.0704 30.2146 52.8789 30.2146H50.1749V23.8008H52.7321C55.5563 23.8008 56.3842 22.8238 56.3842 20.584C56.3842 18.7163 55.5029 17.4801 53.5199 17.4801C51.1964 17.4801 50.5755 18.8958 50.3485 20.5109H42.2163H42.223ZM92.3246 18.8758H79.9127C79.7925 19.8728 79.3786 22.6311 79.2584 23.4353C80.3867 22.5978 82.096 22.0395 84.5663 22.0395C90.9025 22.0395 94.361 26.6854 94.361 32.7802C94.361 39.5396 90.4752 44.9298 81.909 44.9298C74.4445 44.9298 70.2316 40.9353 69.6173 35.1994H78.2636C78.6909 37.087 79.7057 38.4097 81.7822 38.4097C84.1924 38.4097 85.274 36.3426 85.274 33.3916C85.274 30.4406 84.3593 28.5331 81.6954 28.5331C79.5455 28.5331 78.6642 29.6165 78.1434 31.1385L70.2516 30.3476C71.006 26.3929 72.3948 16.3303 72.8555 11.6512H93.5064L92.3246 18.8825V18.8758ZM128.993 10.1956V44.2984H119.632V10.1956H128.993ZM134.281 25.0703C134.281 22.8238 134.267 20.3979 134.221 18.3375H143.027C143.167 18.9955 143.261 20.4245 143.307 21.1954C144.242 19.7133 146.245 17.7061 150.204 17.7061C155.058 17.7061 158.13 21.2154 158.13 27.5694V44.2918H149.13V28.6926C149.13 26.1935 148.455 24.7845 146.379 24.7845C144.496 24.7845 143.314 25.8479 143.314 29.4902V44.2918H134.294V25.0637L134.281 25.0703ZM173.499 38.855C175.282 38.855 176.05 38.2701 176.05 37.0737C176.05 35.7976 174.982 35.339 171.79 34.568C163.431 32.5608 162.236 29.6098 162.236 25.9476C162.236 22.2855 164.699 17.7127 172.992 17.7127C181.284 17.7127 183.748 22.0528 183.982 25.7084H175.903C175.716 24.7912 175.188 23.4752 172.752 23.4752C171.136 23.4752 170.548 24.193 170.548 25.0769C170.548 26.0939 171.343 26.5325 175.275 27.4763C183.007 29.3307 184.669 32.2152 184.669 36.2895C184.669 40.9154 181.511 44.9232 173.219 44.9232C164.926 44.9232 161.989 40.8688 161.501 36.2828H169.861C170.241 37.9378 171.53 38.855 173.499 38.855ZM188.455 8.42102H197.475V15.1472H188.455V8.42102ZM188.455 18.3375H197.475V44.2918H188.455V18.3375ZM226.806 40.4169C226.806 48.911 223.995 54.2946 213.78 54.2946C203.564 54.2946 202.336 48.6917 202.069 45.7938H210.982C211.316 47.1364 212.09 48.1002 214.133 48.1002C217.245 48.1002 217.892 46.0996 217.892 41.8592V40.49C216.657 42.464 214.801 43.7467 211.376 43.7467C205.013 43.7467 201.548 38.1704 201.548 31.3179C201.548 23.2226 205.888 17.6994 211.963 17.6994C215.823 17.6994 217.525 19.5405 217.892 20.7302C217.939 20.0855 218.093 18.7761 218.153 18.3242H226.866C226.819 20.2982 226.806 22.7573 226.806 25.7682V40.4036V40.4169ZM210.782 30.8593C210.782 34.7741 212.157 37.0472 214.461 37.0472C217.478 37.0472 218.173 34.6212 218.173 30.7862C218.173 26.7253 217.779 24.3591 214.601 24.3591C212.478 24.3591 210.782 26.147 210.782 30.866V30.8593ZM240.86 8.42102V21.0492C242.055 19.4607 244.085 17.7061 247.71 17.7061C252.711 17.7061 255.676 21.0758 255.676 27.5095V44.2918H246.702V28.666C246.702 26.0673 245.941 24.7845 243.938 24.7845C241.221 24.7845 240.853 27.0443 240.853 30.2213V44.2918H231.833V8.42102H240.853H240.86ZM258.513 18.3375H262.005V11.6113H270.925V18.3375H275.178V24.8443H270.925V35.9837C270.925 37.5922 271.399 38.197 273.295 38.197C273.636 38.197 274.076 38.197 274.55 38.1505V44.1123C273.148 44.6041 270.798 44.7105 269.296 44.7105C263.567 44.7105 261.958 41.7129 261.958 36.8079V24.8443H258.513V18.3375ZM289.272 38.855C291.055 38.855 291.823 38.2701 291.823 37.0737C291.823 35.7976 290.755 35.339 287.563 34.568C279.204 32.5608 278.009 29.6098 278.009 25.9476C278.009 22.2855 280.473 17.7127 288.765 17.7127C297.057 17.7127 299.521 22.0528 299.755 25.7084H291.676C291.489 24.7912 290.962 23.4752 288.525 23.4752C286.909 23.4752 286.321 24.193 286.321 25.0769C286.321 26.0939 287.116 26.5325 291.048 27.4763C298.78 29.3307 300.442 32.2152 300.442 36.2895C300.442 40.9154 297.284 44.9232 288.992 44.9232C280.7 44.9232 277.762 40.8688 277.274 36.2828H285.634C286.014 37.9378 287.303 38.855 289.272 38.855Z" fill="white"/>
<path d="M480.972 59.2793H331.338L355.677 28.4092L331.521 0H480.972V59.2793Z" fill="#48B6B8"/>
<path d="M370.496 38.8559L374.279 18.9318H383.267C384.988 18.9318 386.401 19.2204 387.506 19.7976C388.618 20.3684 389.397 21.1629 389.842 22.1811C390.294 23.1929 390.398 24.3603 390.153 25.6834C389.901 27.013 389.352 28.1837 388.507 29.1954C387.669 30.2007 386.579 30.9855 385.236 31.5497C383.894 32.114 382.344 32.3961 380.586 32.3961H374.857L375.491 29.0203H380.442C381.376 29.0203 382.173 28.8809 382.833 28.602C383.501 28.3166 384.031 27.9242 384.424 27.4248C384.817 26.9189 385.073 26.3385 385.192 25.6834C385.318 25.0154 385.277 24.4349 385.07 23.942C384.862 23.4491 384.48 23.0664 383.924 22.794C383.375 22.5151 382.637 22.3757 381.71 22.3757H378.462L375.313 38.8559H370.496Z" fill="black"/>
<path d="M398.157 39.1478C396.415 39.1478 394.972 38.8235 393.83 38.1749C392.688 37.5198 391.883 36.6118 391.416 35.4509C390.956 34.2835 390.871 32.9247 391.16 31.3746C391.442 29.844 392.028 28.5047 392.918 27.3567C393.808 26.2088 394.939 25.317 396.311 24.6814C397.683 24.0393 399.229 23.7182 400.95 23.7182C402.685 23.7182 404.124 24.0458 405.266 24.7008C406.408 25.3494 407.213 26.2574 407.68 27.4248C408.147 28.5923 408.236 29.951 407.947 31.5011C407.658 33.0252 407.064 34.3613 406.167 35.5093C405.27 36.6572 404.139 37.5523 402.774 38.1944C401.41 38.83 399.871 39.1478 398.157 39.1478ZM398.625 35.9373C399.426 35.9373 400.134 35.7395 400.749 35.3439C401.372 34.9418 401.888 34.397 402.296 33.7095C402.711 33.0155 403 32.2307 403.164 31.3552C403.327 30.4926 403.338 29.7273 403.197 29.0592C403.056 28.3847 402.759 27.8529 402.307 27.4637C401.862 27.0746 401.25 26.88 400.471 26.88C399.67 26.88 398.958 27.0811 398.335 27.4832C397.713 27.8788 397.197 28.4236 396.789 29.1176C396.381 29.8116 396.096 30.5996 395.933 31.4816C395.777 32.3378 395.766 33.1031 395.899 33.7776C396.033 34.4456 396.326 34.9742 396.778 35.3633C397.23 35.746 397.846 35.9373 398.625 35.9373Z" fill="black"/>
<path d="M418.148 18.9318L414.366 38.8559H409.627L413.409 18.9318H418.148Z" fill="black"/>
<path d="M418.162 38.8559L421.01 23.9128H425.749L422.901 38.8559H418.162ZM423.869 21.9671C423.164 21.9671 422.582 21.7628 422.122 21.3542C421.67 20.9391 421.485 20.4462 421.566 19.8755C421.648 19.2917 421.967 18.7988 422.523 18.3967C423.079 17.9881 423.71 17.7838 424.414 17.7838C425.119 17.7838 425.693 17.9881 426.138 18.3967C426.583 18.7988 426.769 19.2917 426.695 19.8755C426.62 20.4462 426.305 20.9391 425.749 21.3542C425.2 21.7628 424.574 21.9671 423.869 21.9671Z" fill="black"/>
<path d="M434.373 39.1478C432.616 39.1478 431.169 38.8235 430.035 38.1749C428.907 37.5198 428.118 36.6118 427.665 35.4509C427.22 34.29 427.142 32.9539 427.432 31.4427C427.713 29.9121 428.303 28.5696 429.2 27.4151C430.098 26.2542 431.236 25.3494 432.616 24.7008C434.002 24.0458 435.56 23.7182 437.288 23.7182C438.779 23.7182 440.039 23.955 441.07 24.4284C442.101 24.9019 442.858 25.5667 443.34 26.4228C443.822 27.2789 443.985 28.2842 443.829 29.4386H439.368C439.376 28.6993 439.157 28.0993 438.712 27.6389C438.267 27.1784 437.614 26.9481 436.754 26.9481C436.012 26.9481 435.33 27.1232 434.707 27.4735C434.091 27.8172 433.569 28.3199 433.138 28.9814C432.716 29.6429 432.419 30.4439 432.248 31.3844C432.07 32.3378 432.067 33.1485 432.237 33.8165C432.408 34.4845 432.734 34.9937 433.216 35.3439C433.698 35.6941 434.307 35.8692 435.041 35.8692C435.59 35.8692 436.098 35.7719 436.565 35.5774C437.039 35.3828 437.455 35.1007 437.811 34.731C438.167 34.3548 438.441 33.9041 438.634 33.3787H443.106C442.802 34.5267 442.249 35.532 441.448 36.3946C440.655 37.2572 439.657 37.9317 438.456 38.4181C437.255 38.9045 435.894 39.1478 434.373 39.1478Z" fill="black"/>
<path d="M446.963 44.4596C446.355 44.4596 445.799 44.4174 445.295 44.3331C444.79 44.2553 444.375 44.1547 444.049 44.0315L445.717 40.9378C446.244 41.087 446.722 41.1648 447.153 41.1713C447.59 41.1778 447.991 41.0805 448.354 40.8794C448.717 40.6784 449.051 40.3476 449.355 39.8871L449.778 39.2548L446.574 23.9128H451.38L452.826 34.9061H453.004L458.666 23.9128H463.862L454.083 40.4708C453.601 41.2816 453.03 41.9853 452.37 42.5819C451.717 43.1786 450.942 43.6391 450.045 43.9634C449.155 44.2942 448.128 44.4596 446.963 44.4596Z" fill="black"/>
</g>
<defs>
<clipPath id="clip0_5712_156">
<rect width="480.163" height="59.2794" fill="white"/>
</clipPath>
</defs>
</svg>
