<svg width="337" height="60" viewBox="0 0 337 60" fill="none" xmlns="http://www.w3.org/2000/svg">
<path d="M336.49 29.0914L309.723 59.2794H0V0H309.723L336.49 29.0914Z" fill="#0F202B"/>
<path d="M36.4477 18.8758H24.0358C23.9156 19.8728 23.5017 22.6311 23.3815 23.4353C24.5099 22.5978 26.2191 22.0395 28.6894 22.0395C35.0256 22.0395 38.4841 26.6854 38.4841 32.7802C38.4841 39.5396 34.5983 44.9298 26.0321 44.9298C18.5676 44.9298 14.3547 40.9353 13.7404 35.1994H22.3867C22.814 37.087 23.8288 38.4097 25.9053 38.4097C28.3155 38.4097 29.3972 36.3426 29.3972 33.3916C29.3972 30.4406 28.4825 28.5331 25.8185 28.5331C23.6686 28.5331 22.7873 29.6165 22.2665 31.1385L14.3747 30.3476C15.1292 26.3929 16.5179 16.3303 16.9786 11.6512H37.6295L36.4477 18.8825V18.8758ZM42.223 20.5109C42.657 16.3635 45.1474 11.0198 53.9672 11.0198C61.592 11.0198 65.1573 15.2402 65.1573 20.0855C65.1573 23.8939 63.0608 25.7615 61.1313 26.6389V26.805C63.0475 27.5494 66.2656 29.4436 66.2656 34.5082C66.2656 39.5728 63.0074 44.9431 53.9071 44.9431C44.2527 44.9431 41.9159 38.8882 41.6688 35.0266H50.0681C50.3418 36.881 51.3099 38.5227 53.7669 38.5227C56.037 38.5227 57.1453 36.8677 57.1453 34.3886C57.1453 31.6968 56.0704 30.2146 52.8789 30.2146H50.1749V23.8008H52.7321C55.5563 23.8008 56.3842 22.8238 56.3842 20.584C56.3842 18.7163 55.5029 17.4801 53.5199 17.4801C51.1964 17.4801 50.5755 18.8958 50.3485 20.5109H42.2163H42.223ZM92.3246 18.8758H79.9127C79.7925 19.8728 79.3786 22.6311 79.2584 23.4353C80.3867 22.5978 82.096 22.0395 84.5663 22.0395C90.9025 22.0395 94.361 26.6854 94.361 32.7802C94.361 39.5396 90.4752 44.9298 81.909 44.9298C74.4445 44.9298 70.2316 40.9353 69.6173 35.1994H78.2636C78.6909 37.087 79.7057 38.4097 81.7822 38.4097C84.1924 38.4097 85.274 36.3426 85.274 33.3916C85.274 30.4406 84.3593 28.5331 81.6954 28.5331C79.5455 28.5331 78.6642 29.6165 78.1434 31.1385L70.2516 30.3476C71.006 26.3929 72.3948 16.3303 72.8555 11.6512H93.5064L92.3246 18.8825V18.8758ZM128.993 10.1956V44.2984H119.632V10.1956H128.993ZM134.281 25.0703C134.281 22.8238 134.267 20.3979 134.221 18.3375H143.027C143.167 18.9955 143.261 20.4245 143.307 21.1954C144.242 19.7133 146.245 17.7061 150.204 17.7061C155.058 17.7061 158.13 21.2154 158.13 27.5694V44.2918H149.13V28.6926C149.13 26.1935 148.455 24.7845 146.379 24.7845C144.496 24.7845 143.314 25.8479 143.314 29.4902V44.2918H134.294V25.0637L134.281 25.0703ZM173.499 38.855C175.282 38.855 176.05 38.2701 176.05 37.0737C176.05 35.7976 174.982 35.339 171.79 34.568C163.431 32.5608 162.236 29.6098 162.236 25.9476C162.236 22.2855 164.699 17.7127 172.992 17.7127C181.284 17.7127 183.748 22.0528 183.982 25.7084H175.903C175.716 24.7912 175.188 23.4752 172.752 23.4752C171.136 23.4752 170.548 24.193 170.548 25.0769C170.548 26.0939 171.343 26.5325 175.275 27.4763C183.007 29.3307 184.669 32.2152 184.669 36.2895C184.669 40.9154 181.511 44.9232 173.219 44.9232C164.926 44.9232 161.989 40.8688 161.501 36.2828H169.861C170.241 37.9378 171.53 38.855 173.499 38.855ZM188.455 8.42102H197.475V15.1472H188.455V8.42102ZM188.455 18.3375H197.475V44.2918H188.455V18.3375ZM226.806 40.4169C226.806 48.911 223.995 54.2946 213.78 54.2946C203.564 54.2946 202.336 48.6917 202.069 45.7938H210.982C211.316 47.1364 212.09 48.1002 214.133 48.1002C217.245 48.1002 217.892 46.0996 217.892 41.8592V40.49C216.657 42.464 214.801 43.7467 211.376 43.7467C205.013 43.7467 201.548 38.1704 201.548 31.3179C201.548 23.2226 205.888 17.6994 211.963 17.6994C215.823 17.6994 217.525 19.5405 217.892 20.7302C217.939 20.0855 218.093 18.7761 218.153 18.3242H226.866C226.819 20.2982 226.806 22.7573 226.806 25.7682V40.4036V40.4169ZM210.782 30.8593C210.782 34.7741 212.157 37.0472 214.461 37.0472C217.478 37.0472 218.173 34.6212 218.173 30.7862C218.173 26.7253 217.779 24.3591 214.601 24.3591C212.478 24.3591 210.782 26.147 210.782 30.866V30.8593ZM240.86 8.42102V21.0492C242.055 19.4607 244.085 17.7061 247.71 17.7061C252.711 17.7061 255.676 21.0758 255.676 27.5095V44.2918H246.702V28.666C246.702 26.0673 245.941 24.7845 243.938 24.7845C241.221 24.7845 240.853 27.0443 240.853 30.2213V44.2918H231.833V8.42102H240.853H240.86ZM258.513 18.3375H262.005V11.6113H270.925V18.3375H275.178V24.8443H270.925V35.9837C270.925 37.5922 271.399 38.197 273.295 38.197C273.636 38.197 274.076 38.197 274.55 38.1505V44.1123C273.148 44.6041 270.798 44.7105 269.296 44.7105C263.567 44.7105 261.958 41.7129 261.958 36.8079V24.8443H258.513V18.3375ZM289.272 38.855C291.055 38.855 291.823 38.2701 291.823 37.0737C291.823 35.7976 290.755 35.339 287.563 34.568C279.204 32.5608 278.009 29.6098 278.009 25.9476C278.009 22.2855 280.473 17.7127 288.765 17.7127C297.057 17.7127 299.521 22.0528 299.755 25.7084H291.676C291.489 24.7912 290.962 23.4752 288.525 23.4752C286.909 23.4752 286.321 24.193 286.321 25.0769C286.321 26.0939 287.116 26.5325 291.048 27.4763C298.78 29.3307 300.442 32.2152 300.442 36.2895C300.442 40.9154 297.284 44.9232 288.992 44.9232C280.7 44.9232 277.762 40.8688 277.274 36.2828H285.634C286.014 37.9378 287.303 38.855 289.272 38.855Z" fill="white"/>
</svg>
