<svg width="1483" height="568" viewBox="0 0 1483 568" fill="none"
  xmlns="http://www.w3.org/2000/svg">
  <path d="M-1.04847e-05 284L140.287 523.861L287.613 486.951L148.439 30.2003L-1.04847e-05 284Z" fill="#6F9B9A"/>
  <path d="M543.144 76.6627L498.307 8.88674e-05L436.873 9.15527e-05L492.408 89.3109L543.144 76.6627Z" fill="#6F9B9A"/>
  <path d="M402.026 0.000173205L175.522 0.000183105L222.228 156.666L459.12 97.6094L402.026 0.000173205Z" fill="#22D6CD"/>
  <path d="M664.41 284L590.02 411.19L318.395 479.24L232.333 190.557L561.488 108.024L664.41 284Z" fill="#B9EAE4"/>
  <path d="M166.102 568L498.306 568L568.619 447.779L156.591 551.738L166.102 568Z" fill="#0F202B"/>
  <path d="M1383.49 495.208C1374.82 495.208 1367.23 493.504 1360.71 490.096C1354.28 486.591 1349.26 481.82 1345.66 475.783C1342.16 469.746 1340.4 462.882 1340.4 455.189C1340.4 447.4 1342.11 440.536 1345.52 434.596C1349.02 428.559 1353.79 423.837 1359.83 420.429C1365.96 417.021 1372.92 415.317 1380.71 415.317C1388.31 415.317 1395.08 416.972 1401.02 420.283C1406.96 423.593 1411.63 428.267 1415.04 434.304C1418.44 440.341 1420.15 447.449 1420.15 455.628C1420.15 456.407 1420.1 457.283 1420 458.257C1420 459.23 1419.95 460.155 1419.86 461.032H1354.86V448.909H1410.22L1403.06 452.707C1403.16 448.228 1402.23 444.284 1400.29 440.876C1398.34 437.468 1395.66 434.791 1392.25 432.843C1388.94 430.896 1385.1 429.922 1380.71 429.922C1376.24 429.922 1372.29 430.896 1368.88 432.843C1365.57 434.791 1362.94 437.517 1361 441.022C1359.15 444.43 1358.22 448.471 1358.22 453.145V456.066C1358.22 460.739 1359.29 464.878 1361.44 468.48C1363.58 472.083 1366.6 474.858 1370.49 476.805C1374.39 478.753 1378.86 479.726 1383.93 479.726C1388.31 479.726 1392.25 479.045 1395.76 477.682C1399.26 476.318 1402.38 474.176 1405.11 471.255L1414.89 482.501C1411.39 486.591 1406.96 489.755 1401.6 491.995C1396.34 494.137 1390.31 495.208 1383.49 495.208Z" fill="black"/>
  <path d="M1313.85 495.208C1305.28 495.208 1298.66 493.017 1293.99 488.636C1289.32 484.157 1286.98 477.584 1286.98 468.918V398.959H1305.24V468.48C1305.24 472.18 1306.16 475.053 1308.01 477.097C1309.96 479.142 1312.64 480.164 1316.04 480.164C1320.13 480.164 1323.54 479.093 1326.27 476.951L1331.38 489.95C1329.24 491.703 1326.61 493.017 1323.49 493.893C1320.38 494.77 1317.16 495.208 1313.85 495.208ZM1274.13 431.383V416.778H1326.12V431.383H1274.13Z" fill="black"/>
  <path d="M1215.09 495.208C1208.47 495.208 1202.63 493.991 1197.56 491.557C1192.5 489.025 1188.56 485.228 1185.73 480.164C1182.91 475.004 1181.5 468.529 1181.5 460.739V416.193H1199.76V458.257C1199.76 465.267 1201.31 470.525 1204.43 474.03C1207.64 477.438 1212.17 479.142 1218.01 479.142C1222.3 479.142 1226 478.266 1229.11 476.513C1232.33 474.76 1234.81 472.132 1236.56 468.626C1238.41 465.121 1239.34 460.788 1239.34 455.628V416.193H1257.59V494.185H1240.21V473.154L1243.28 479.58C1240.65 484.643 1236.8 488.538 1231.74 491.264C1226.68 493.893 1221.13 495.208 1215.09 495.208Z" fill="black"/>
  <path d="M1146.54 495.208C1137.97 495.208 1131.35 493.017 1126.68 488.636C1122 484.157 1119.67 477.584 1119.67 468.918V398.959H1137.92V468.48C1137.92 472.18 1138.85 475.053 1140.7 477.097C1142.64 479.142 1145.32 480.164 1148.73 480.164C1152.82 480.164 1156.23 479.093 1158.95 476.951L1164.07 489.95C1161.92 491.703 1159.29 493.017 1156.18 493.893C1153.06 494.77 1149.85 495.208 1146.54 495.208ZM1106.81 431.383V416.778H1158.81V431.383H1106.81Z" fill="black"/>
  <path d="M1071.96 494.185V416.193H1090.22V494.185H1071.96ZM1081.17 403.341C1077.76 403.341 1074.93 402.27 1072.69 400.128C1070.55 397.985 1069.48 395.405 1069.48 392.387C1069.48 389.271 1070.55 386.691 1072.69 384.646C1074.93 382.504 1077.76 381.433 1081.17 381.433C1084.57 381.433 1087.35 382.455 1089.49 384.5C1091.73 386.447 1092.85 388.93 1092.85 391.949C1092.85 395.162 1091.78 397.888 1089.64 400.128C1087.49 402.27 1084.67 403.341 1081.17 403.341Z" fill="black"/>
  <path d="M1036.42 495.208C1027.85 495.208 1021.23 493.017 1016.56 488.636C1011.88 484.157 1009.55 477.584 1009.55 468.918V398.959H1027.8V468.48C1027.8 472.18 1028.73 475.053 1030.58 477.097C1032.52 479.142 1035.2 480.164 1038.61 480.164C1042.7 480.164 1046.11 479.093 1048.83 476.951L1053.95 489.95C1051.8 491.703 1049.17 493.017 1046.06 493.893C1042.94 494.77 1039.73 495.208 1036.42 495.208ZM996.693 431.383V416.778H1048.69V431.383H996.693Z" fill="black"/>
  <path d="M952.996 495.208C946.472 495.208 940.192 494.38 934.155 492.725C928.215 490.972 923.493 488.879 919.988 486.445L926.998 472.57C930.504 474.809 934.69 476.659 939.559 478.12C944.427 479.58 949.296 480.311 954.164 480.311C959.909 480.311 964.047 479.532 966.579 477.974C969.208 476.416 970.522 474.322 970.522 471.693C970.522 469.551 969.646 467.945 967.893 466.874C966.14 465.705 963.852 464.829 961.029 464.245C958.205 463.661 955.04 463.125 951.535 462.638C948.127 462.151 944.671 461.518 941.165 460.74C937.758 459.863 934.642 458.646 931.818 457.088C928.994 455.433 926.706 453.242 924.954 450.516C923.201 447.789 922.325 444.187 922.325 439.708C922.325 434.742 923.736 430.458 926.56 426.855C929.384 423.155 933.327 420.332 938.39 418.384C943.551 416.339 949.636 415.317 956.647 415.317C961.905 415.317 967.211 415.901 972.567 417.07C977.922 418.238 982.352 419.893 985.858 422.036L978.847 435.911C975.147 433.671 971.398 432.162 967.601 431.383C963.901 430.507 960.201 430.068 956.501 430.068C950.951 430.068 946.813 430.896 944.086 432.551C941.458 434.207 940.143 436.3 940.143 438.832C940.143 441.168 941.019 442.921 942.772 444.089C944.525 445.258 946.813 446.183 949.636 446.865C952.46 447.546 955.576 448.13 958.984 448.617C962.489 449.007 965.946 449.639 969.354 450.516C972.761 451.392 975.877 452.609 978.701 454.167C981.622 455.628 983.959 457.721 985.711 460.447C987.464 463.174 988.34 466.728 988.34 471.109C988.34 475.978 986.88 480.213 983.959 483.816C981.135 487.418 977.094 490.242 971.836 492.287C966.579 494.234 960.298 495.208 952.996 495.208Z" fill="black"/>
  <path d="M870.168 415.317C876.399 415.317 881.949 416.534 886.818 418.968C891.783 421.403 895.678 425.151 898.502 430.214C901.325 435.18 902.737 441.607 902.737 449.493V494.186H884.481V451.83C884.481 444.917 882.825 439.757 879.515 436.349C876.302 432.941 871.774 431.237 865.932 431.237C861.648 431.237 857.85 432.113 854.54 433.866C851.229 435.618 848.649 438.247 846.799 441.753C845.046 445.161 844.17 449.493 844.17 454.751V494.186H825.914V416.193H843.294V437.225L840.227 430.799C842.953 425.833 846.896 422.036 852.057 419.407C857.315 416.68 863.352 415.317 870.168 415.317Z" fill="black"/>
  <path d="M778.026 494.186V391.949H797.013V494.186H778.026Z" fill="black"/>
  <path d="M1267.94 339.208C1259.28 339.208 1251.68 337.504 1245.16 334.096C1238.73 330.591 1233.72 325.82 1230.12 319.783C1226.61 313.746 1224.86 306.882 1224.86 299.19C1224.86 291.4 1226.56 284.536 1229.97 278.596C1233.48 272.559 1238.25 267.837 1244.28 264.429C1250.42 261.021 1257.38 259.317 1265.17 259.317C1272.76 259.317 1279.53 260.972 1285.47 264.283C1291.41 267.593 1296.08 272.267 1299.49 278.304C1302.9 284.341 1304.6 291.449 1304.6 299.628C1304.6 300.407 1304.56 301.283 1304.46 302.257C1304.46 303.23 1304.41 304.155 1304.31 305.032H1239.32V292.909H1294.67L1287.52 296.707C1287.61 292.228 1286.69 288.284 1284.74 284.876C1282.79 281.468 1280.12 278.791 1276.71 276.843C1273.4 274.896 1269.55 273.922 1265.17 273.922C1260.69 273.922 1256.75 274.896 1253.34 276.843C1250.03 278.791 1247.4 281.517 1245.45 285.022C1243.6 288.43 1242.68 292.471 1242.68 297.145V300.066C1242.68 304.74 1243.75 308.878 1245.89 312.48C1248.03 316.083 1251.05 318.858 1254.95 320.805C1258.84 322.753 1263.32 323.726 1268.38 323.726C1272.76 323.726 1276.71 323.045 1280.21 321.682C1283.72 320.318 1286.83 318.176 1289.56 315.255L1299.35 326.501C1295.84 330.591 1291.41 333.755 1286.06 335.995C1280.8 338.137 1274.76 339.208 1267.94 339.208Z" fill="black"/>
  <path d="M1168.38 338.186V260.193H1185.76V281.663L1183.72 275.383C1186.05 270.125 1189.71 266.133 1194.67 263.407C1199.73 260.68 1206.01 259.317 1213.51 259.317V276.697C1212.73 276.503 1212 276.405 1211.32 276.405C1210.64 276.308 1209.96 276.259 1209.28 276.259C1202.36 276.259 1196.86 278.304 1192.77 282.393C1188.68 286.386 1186.64 292.374 1186.64 300.358V338.186H1168.38Z" fill="black"/>
  <path d="M1124.72 338.186V322.412L1123.69 319.053V291.449C1123.69 286.093 1122.09 281.955 1118.87 279.034C1115.66 276.016 1110.79 274.507 1104.27 274.507C1099.89 274.507 1095.56 275.188 1091.27 276.551C1087.08 277.915 1083.53 279.813 1080.61 282.247L1073.45 268.957C1077.64 265.743 1082.61 263.358 1088.35 261.8C1094.19 260.145 1100.23 259.317 1106.46 259.317C1117.76 259.317 1126.47 262.043 1132.6 267.496C1138.84 272.851 1141.95 281.176 1141.95 292.471V338.186H1124.72ZM1100.18 339.208C1094.34 339.208 1089.23 338.234 1084.84 336.287C1080.46 334.242 1077.06 331.467 1074.62 327.962C1072.28 324.359 1071.12 320.318 1071.12 315.84C1071.12 311.458 1072.14 307.515 1074.18 304.009C1076.32 300.504 1079.78 297.729 1084.55 295.684C1089.32 293.64 1095.65 292.617 1103.54 292.617H1126.18V304.74H1104.85C1098.62 304.74 1094.44 305.762 1092.29 307.807C1090.15 309.754 1089.08 312.188 1089.08 315.109C1089.08 318.42 1090.39 321.049 1093.02 322.996C1095.65 324.943 1099.3 325.917 1103.98 325.917C1108.46 325.917 1112.45 324.895 1115.95 322.85C1119.56 320.805 1122.14 317.787 1123.69 313.795L1126.76 324.749C1125.01 329.325 1121.84 332.879 1117.27 335.411C1112.79 337.942 1107.09 339.208 1100.18 339.208Z" fill="black"/>
  <path d="M1007.26 339.208C1000.64 339.208 994.798 337.991 989.735 335.557C984.672 333.025 980.728 329.228 977.904 324.164C975.081 319.004 973.669 312.529 973.669 304.739V260.193H991.926V302.257C991.926 309.267 993.483 314.525 996.599 318.03C999.812 321.438 1004.34 323.142 1010.18 323.142C1014.47 323.142 1018.17 322.266 1021.28 320.513C1024.5 318.76 1026.98 316.132 1028.73 312.626C1030.58 309.121 1031.51 304.788 1031.51 299.628V260.193H1049.76V338.185H1032.38V317.154L1035.45 323.58C1032.82 328.643 1028.97 332.538 1023.91 335.264C1018.85 337.893 1013.3 339.208 1007.26 339.208Z" fill="black"/>
  <path d="M904.135 339.208C896.638 339.208 889.87 337.553 883.834 334.242C877.894 330.932 873.22 326.307 869.813 320.367C866.405 314.33 864.701 307.271 864.701 299.19C864.701 291.108 866.405 284.097 869.813 278.158C873.22 272.218 877.894 267.593 883.834 264.283C889.87 260.972 896.638 259.317 904.135 259.317C910.853 259.317 916.744 260.778 921.807 263.699C926.968 266.522 931.009 270.855 933.93 276.697C936.948 282.54 938.457 290.037 938.457 299.19C938.457 308.245 936.899 315.742 933.784 321.682C930.765 327.524 926.676 331.905 921.515 334.826C916.355 337.747 910.561 339.208 904.135 339.208ZM906.18 323.58C910.561 323.58 914.505 322.607 918.01 320.659C921.515 318.712 924.29 315.888 926.335 312.188C928.38 308.488 929.402 304.155 929.402 299.19C929.402 294.126 928.38 289.793 926.335 286.191C924.29 282.491 921.515 279.667 918.01 277.72C914.505 275.772 910.561 274.799 906.18 274.799C901.798 274.799 897.855 275.772 894.349 277.72C890.941 279.667 888.215 282.491 886.17 286.191C884.126 289.793 883.103 294.126 883.103 299.19C883.103 304.155 884.126 308.488 886.17 312.188C888.215 315.888 890.941 318.712 894.349 320.659C897.855 322.607 901.798 323.58 906.18 323.58ZM929.11 366.52V320.075L930.57 299.336L929.986 278.596V260.193H947.366V366.52H929.11Z" fill="black"/>
  <path d="M809.72 339.646C801.735 339.646 794.092 338.526 786.789 336.287C779.487 333.95 773.693 330.98 769.409 327.378L775.982 312.626C780.071 315.839 785.134 318.517 791.171 320.659C797.208 322.801 803.391 323.872 809.72 323.872C815.075 323.872 819.408 323.288 822.718 322.12C826.029 320.951 828.463 319.393 830.021 317.446C831.579 315.401 832.358 313.113 832.358 310.582C832.358 307.466 831.238 304.983 828.999 303.133C826.759 301.186 823.838 299.676 820.235 298.605C816.73 297.437 812.787 296.366 808.405 295.392C804.121 294.418 799.788 293.299 795.407 292.033C791.122 290.67 787.179 288.966 783.576 286.921C780.071 284.779 777.199 281.955 774.959 278.45C772.72 274.945 771.6 270.466 771.6 265.013C771.6 259.463 773.06 254.4 775.982 249.824C779 245.15 783.528 241.45 789.564 238.724C795.699 235.9 803.439 234.488 812.787 234.488C818.921 234.488 825.007 235.267 831.043 236.825C837.08 238.383 842.338 240.622 846.817 243.543L840.829 258.295C836.253 255.568 831.53 253.572 826.662 252.307C821.793 250.943 817.12 250.262 812.641 250.262C807.383 250.262 803.099 250.895 799.788 252.161C796.575 253.426 794.189 255.082 792.632 257.126C791.171 259.171 790.441 261.508 790.441 264.137C790.441 267.253 791.512 269.784 793.654 271.732C795.893 273.582 798.766 275.042 802.271 276.113C805.874 277.184 809.866 278.255 814.247 279.326C818.629 280.3 822.962 281.42 827.246 282.686C831.628 283.951 835.571 285.607 839.076 287.651C842.679 289.696 845.551 292.471 847.693 295.976C849.933 299.482 851.053 303.912 851.053 309.267C851.053 314.72 849.543 319.783 846.525 324.457C843.604 329.033 839.076 332.733 832.942 335.557C826.808 338.283 819.067 339.646 809.72 339.646Z" fill="black"/>
  <path d="M1445.53 183.208C1436.87 183.208 1429.27 181.504 1422.75 178.096C1416.32 174.591 1411.31 169.82 1407.71 163.783C1404.2 157.746 1402.45 150.882 1402.45 143.19C1402.45 135.4 1404.15 128.536 1407.56 122.596C1411.06 116.559 1415.84 111.837 1421.87 108.429C1428.01 105.021 1434.97 103.317 1442.76 103.317C1450.35 103.317 1457.12 104.972 1463.06 108.283C1469 111.593 1473.67 116.267 1477.08 122.304C1480.49 128.341 1482.19 135.449 1482.19 143.628C1482.19 144.407 1482.14 145.283 1482.05 146.257C1482.05 147.23 1482 148.155 1481.9 149.032H1416.91V136.909H1472.26L1465.1 140.707C1465.2 136.228 1464.28 132.284 1462.33 128.876C1460.38 125.468 1457.7 122.791 1454.3 120.843C1450.99 118.896 1447.14 117.922 1442.76 117.922C1438.28 117.922 1434.34 118.896 1430.93 120.843C1427.62 122.791 1424.99 125.517 1423.04 129.022C1421.19 132.43 1420.27 136.471 1420.27 141.145V144.066C1420.27 148.74 1421.34 152.878 1423.48 156.48C1425.62 160.083 1428.64 162.858 1432.53 164.805C1436.43 166.753 1440.91 167.726 1445.97 167.726C1450.35 167.726 1454.3 167.045 1457.8 165.682C1461.31 164.318 1464.42 162.176 1467.15 159.255L1476.93 170.501C1473.43 174.591 1469 177.755 1463.64 179.995C1458.39 182.137 1452.35 183.208 1445.53 183.208Z" fill="black"/>
  <path d="M1375.9 183.208C1367.33 183.208 1360.71 181.017 1356.03 176.636C1351.36 172.157 1349.02 165.584 1349.02 156.918V86.9592H1367.28V156.48C1367.28 160.18 1368.2 163.053 1370.05 165.097C1372 167.142 1374.68 168.164 1378.09 168.164C1382.18 168.164 1385.58 167.093 1388.31 164.951L1393.42 177.95C1391.28 179.703 1388.65 181.017 1385.54 181.893C1382.42 182.77 1379.21 183.208 1375.9 183.208ZM1336.17 119.383V104.778H1388.16V119.383H1336.17Z" fill="black"/>
  <path d="M1312.85 183.208C1304.28 183.208 1297.66 181.017 1292.99 176.636C1288.31 172.157 1285.98 165.584 1285.98 156.918V86.9592H1304.23V156.48C1304.23 160.18 1305.16 163.053 1307.01 165.097C1308.95 167.142 1311.63 168.164 1315.04 168.164C1319.13 168.164 1322.54 167.093 1325.26 164.951L1330.38 177.95C1328.23 179.703 1325.6 181.017 1322.49 181.893C1319.37 182.77 1316.16 183.208 1312.85 183.208ZM1273.12 119.383V104.778H1325.12V119.383H1273.12Z" fill="black"/>
  <path d="M1226.3 183.208C1217.63 183.208 1210.04 181.504 1203.51 178.096C1197.09 174.591 1192.07 169.82 1188.47 163.783C1184.96 157.746 1183.21 150.882 1183.21 143.19C1183.21 135.4 1184.92 128.536 1188.32 122.596C1191.83 116.559 1196.6 111.837 1202.64 108.429C1208.77 105.021 1215.73 103.317 1223.52 103.317C1231.12 103.317 1237.88 104.972 1243.82 108.283C1249.76 111.593 1254.44 116.267 1257.84 122.304C1261.25 128.341 1262.96 135.449 1262.96 143.628C1262.96 144.407 1262.91 145.283 1262.81 146.257C1262.81 147.23 1262.76 148.155 1262.66 149.032H1197.67V136.909H1253.03L1245.87 140.707C1245.97 136.228 1245.04 132.284 1243.09 128.876C1241.15 125.468 1238.47 122.791 1235.06 120.843C1231.75 118.896 1227.9 117.922 1223.52 117.922C1219.04 117.922 1215.1 118.896 1211.69 120.843C1208.38 122.791 1205.75 125.517 1203.81 129.022C1201.96 132.43 1201.03 136.471 1201.03 141.145V144.066C1201.03 148.74 1202.1 152.878 1204.24 156.48C1206.39 160.083 1209.4 162.858 1213.3 164.805C1217.19 166.753 1221.67 167.726 1226.74 167.726C1231.12 167.726 1235.06 167.045 1238.57 165.682C1242.07 164.318 1245.19 162.176 1247.91 159.255L1257.7 170.501C1254.19 174.591 1249.76 177.755 1244.41 179.995C1239.15 182.137 1233.11 183.208 1226.3 183.208Z" fill="black"/>
  <path d="M1110.77 211.542C1106.97 211.542 1103.17 210.909 1099.37 209.643C1095.58 208.378 1092.41 206.625 1089.88 204.385L1097.18 190.949C1099.03 192.604 1101.13 193.918 1103.46 194.892C1105.8 195.866 1108.19 196.353 1110.62 196.353C1113.93 196.353 1116.61 195.525 1118.65 193.87C1120.7 192.214 1122.6 189.439 1124.35 185.545L1128.88 175.321L1130.34 173.13L1159.84 104.193H1177.37L1140.85 188.466C1138.42 194.308 1135.69 198.933 1132.67 202.341C1129.75 205.749 1126.44 208.134 1122.74 209.497C1119.14 210.86 1115.15 211.542 1110.77 211.542ZM1126.83 184.96L1091.63 104.193H1110.62L1139.25 171.524L1126.83 184.96Z" fill="black"/>
  <path d="M1062.1 182.186V166.412L1061.08 163.053V135.449C1061.08 130.093 1059.47 125.955 1056.26 123.034C1053.05 120.016 1048.18 118.507 1041.66 118.507C1037.27 118.507 1032.94 119.188 1028.66 120.551C1024.47 121.915 1020.92 123.813 1017.99 126.247L1010.84 112.957C1015.03 109.743 1019.99 107.358 1025.74 105.8C1031.58 104.145 1037.61 103.317 1043.85 103.317C1055.14 103.317 1063.86 106.043 1069.99 111.496C1076.22 116.851 1079.34 125.176 1079.34 136.471V182.186H1062.1ZM1037.57 183.208C1031.72 183.208 1026.61 182.234 1022.23 180.287C1017.85 178.242 1014.44 175.467 1012.01 171.962C1009.67 168.359 1008.5 164.318 1008.5 159.84C1008.5 155.458 1009.52 151.515 1011.57 148.009C1013.71 144.504 1017.17 141.729 1021.94 139.684C1026.71 137.64 1033.04 136.617 1040.93 136.617H1063.56V148.74H1042.24C1036.01 148.74 1031.82 149.762 1029.68 151.807C1027.54 153.754 1026.47 156.188 1026.47 159.109C1026.47 162.42 1027.78 165.049 1030.41 166.996C1033.04 168.943 1036.69 169.917 1041.36 169.917C1045.84 169.917 1049.83 168.895 1053.34 166.85C1056.94 164.805 1059.52 161.787 1061.08 157.795L1064.15 168.749C1062.39 173.325 1059.23 176.879 1054.65 179.411C1050.18 181.942 1044.48 183.208 1037.57 183.208Z" fill="black"/>
  <path d="M961.046 182.186V99.8118C961.046 91.6329 963.432 85.1092 968.203 80.2408C973.071 75.275 979.985 72.7921 988.943 72.7921C992.156 72.7921 995.174 73.1329 997.998 73.8145C1000.92 74.4961 1003.35 75.5671 1005.3 77.0276L1000.33 90.7566C998.971 89.6855 997.414 88.9066 995.661 88.4197C993.908 87.8355 992.107 87.5434 990.257 87.5434C986.46 87.5434 983.587 88.6145 981.64 90.7566C979.693 92.8013 978.719 95.9171 978.719 100.104V108.867L979.303 117.046V182.186H961.046ZM948.194 119.383V104.778H1000.19V119.383H948.194Z" fill="black"/>
  <path d="M914.9 182.186V166.412L913.877 163.053V135.449C913.877 130.093 912.271 125.955 909.058 123.034C905.844 120.016 900.976 118.507 894.452 118.507C890.071 118.507 885.738 119.188 881.454 120.551C877.267 121.915 873.713 123.813 870.792 126.247L863.635 112.957C867.822 109.743 872.788 107.358 878.533 105.8C884.375 104.145 890.412 103.317 896.643 103.317C907.938 103.317 916.652 106.043 922.786 111.496C929.018 116.851 932.134 125.176 932.134 136.471V182.186H914.9ZM890.363 183.208C884.521 183.208 879.409 182.234 875.027 180.287C870.646 178.242 867.238 175.467 864.804 171.962C862.467 168.359 861.298 164.318 861.298 159.84C861.298 155.458 862.321 151.515 864.365 148.009C866.508 144.504 869.964 141.729 874.735 139.684C879.506 137.64 885.835 136.617 893.722 136.617H916.36V148.74H895.036C888.805 148.74 884.618 149.762 882.476 151.807C880.334 153.754 879.263 156.188 879.263 159.109C879.263 162.42 880.577 165.049 883.206 166.996C885.835 168.943 889.487 169.917 894.16 169.917C898.639 169.917 902.631 168.895 906.137 166.85C909.739 164.805 912.319 161.787 913.877 157.795L916.944 168.749C915.192 173.325 912.027 176.879 907.451 179.411C902.972 181.942 897.276 183.208 890.363 183.208Z" fill="black"/>
  <path d="M778.026 182.186V79.9487H797.013V166.12H850.468V182.186H778.026Z" fill="black"/>
</svg>
